<?xml version="1.0" encoding="UTF-8" standalone="no"?>
<!-- Created with Inkscape (http://www.inkscape.org/) -->

<svg
   xmlns:dc="http://purl.org/dc/elements/1.1/"
   xmlns:cc="http://creativecommons.org/ns#"
   xmlns:rdf="http://www.w3.org/1999/02/22-rdf-syntax-ns#"
   xmlns:svg="http://www.w3.org/2000/svg"
   xmlns="http://www.w3.org/2000/svg"
   xmlns:sodipodi="http://sodipodi.sourceforge.net/DTD/sodipodi-0.dtd"
   xmlns:inkscape="http://www.inkscape.org/namespaces/inkscape"
   width="229.21875"
   height="37.1875"
   id="svg2"
   version="1.1"
   inkscape:version="0.48.3.1 r9886"
   sodipodi:docname="新規ドキュメント 1">
  <defs
     id="defs4" />
  <sodipodi:namedview
     id="base"
     pagecolor="#ffffff"
     bordercolor="#666666"
     borderopacity="1.0"
     inkscape:pageopacity="0.0"
     inkscape:pageshadow="2"
     inkscape:zoom="2"
     inkscape:cx="128.74783"
     inkscape:cy="-9.1406362"
     inkscape:document-units="px"
     inkscape:current-layer="layer1"
     showgrid="false"
     inkscape:object-paths="true"
     inkscape:snap-midpoints="false"
     inkscape:snap-smooth-nodes="true"
     inkscape:snap-nodes="false"
     showguides="true"
     inkscape:guide-bbox="true"
     fit-margin-top="0"
     fit-margin-left="0"
     fit-margin-right="0"
     fit-margin-bottom="0"
     inkscape:window-width="1215"
     inkscape:window-height="776"
     inkscape:window-x="65"
     inkscape:window-y="24"
     inkscape:window-maximized="1" />
  <metadata
     id="metadata7">
    <rdf:RDF>
      <cc:Work
         rdf:about="">
        <dc:format>image/svg+xml</dc:format>
        <dc:type
           rdf:resource="http://purl.org/dc/dcmitype/StillImage" />
        <dc:title></dc:title>
      </cc:Work>
    </rdf:RDF>
  </metadata>
  <g
     inkscape:label="レイヤー 1"
     inkscape:groupmode="layer"
     id="layer1"
     transform="translate(-117.53125,-489.25)">
    <path
       style="font-size:medium;font-style:normal;font-variant:normal;font-weight:normal;font-stretch:normal;text-indent:0;text-align:start;text-decoration:none;line-height:normal;letter-spacing:normal;word-spacing:normal;text-transform:none;direction:ltr;block-progression:tb;writing-mode:lr-tb;text-anchor:start;baseline-shift:baseline;color:#000000;fill:#000000;fill-opacity:1;stroke:none;stroke-width:1;marker:none;visibility:visible;display:inline;overflow:visible;enable-background:accumulate;font-family:Sans;-inkscape-font-specification:Sans"
       d="m 148.8125,127.5 -1.6875,7.5 1.5625,0 1.71875,-7.5 -1.59375,0 z m 34.09375,0 -1.71875,7.5 1.59375,0 1.71875,-7.5 -1.59375,0 z m 3.15625,0 -0.3125,1.34375 1.59375,0 0.3125,-1.34375 -1.59375,0 z m 26.53125,0 -0.3125,1.34375 1.59375,0 0.28125,-1.34375 -1.5625,0 z m -15.3125,0.1875 -1.84375,1 -0.1875,0.875 -0.78125,0 -0.25,1.09375 0.78125,0 -0.5,2.1875 c -0.13676,0.60377 -0.1875,0.98911 -0.1875,1.15625 0,0.35476 0.11996,0.64249 0.375,0.84375 0.25504,0.19784 0.65692,0.28125 1.21875,0.28125 0.2883,0 0.57022,-0.0113 0.84375,-0.0625 l 0.25,-1.09375 c -0.28092,0.0239 -0.46102,0.0313 -0.53125,0.0313 -0.2033,0 -0.32863,-0.0325 -0.40625,-0.0937 -0.0776,-0.0648 -0.125,-0.16868 -0.125,-0.28125 0,-0.058 0.0326,-0.27475 0.125,-0.6875 l 0.53125,-2.28125 0.96875,0 0.25,-1.09375 -0.96875,0 0.4375,-1.875 z m -53.09375,1.75 c -0.72816,1e-5 -1.3377,0.13337 -1.78125,0.40625 -0.43986,0.27289 -0.72883,0.64063 -0.90625,1.125 l 1.5625,0.125 c 0.0591,-0.19784 0.14986,-0.33175 0.3125,-0.4375 0.16633,-0.10915 0.40289,-0.15625 0.6875,-0.15625 0.26982,0 0.45698,0.0505 0.59375,0.15625 0.13676,0.10575 0.21875,0.21809 0.21875,0.375 0,0.1228 -0.0273,0.29534 -0.0937,0.5 -0.25505,0.0819 -0.77352,0.16076 -1.53125,0.21875 -0.89819,0.0648 -1.52386,0.25209 -1.875,0.5625 -0.34745,0.31041 -0.53125,0.73151 -0.53125,1.25 0,0.46391 0.18212,0.82823 0.5,1.125 0.31788,0.29336 0.69959,0.4375 1.1875,0.4375 0.30679,0 0.6344,-0.0613 0.9375,-0.1875 0.30309,-0.12962 0.54838,-0.32372 0.78125,-0.5625 0.0148,0.21149 0.0622,0.42716 0.125,0.625 l 1.5625,0 c -0.0887,-0.28312 -0.15626,-0.54929 -0.15625,-0.78125 -10e-6,-0.25924 0.0947,-0.69564 0.25,-1.34375 0.1885,-0.78455 0.28292,-1.28455 0.3125,-1.46875 0.0333,-0.1842 0.0625,-0.33626 0.0625,-0.5 -10e-6,-0.40592 -0.20027,-0.75153 -0.5625,-1.03125 -0.36224,-0.28312 -0.89852,-0.43749 -1.65625,-0.4375 z m 19,0 c -0.72816,1e-5 -1.30645,0.13337 -1.75,0.40625 -0.43986,0.27289 -0.76008,0.64063 -0.9375,1.125 l 1.5625,0.125 c 0.0591,-0.19784 0.18111,-0.33175 0.34375,-0.4375 0.16633,-0.10915 0.37164,-0.15625 0.65625,-0.15625 0.26982,0 0.48823,0.0505 0.625,0.15625 0.13676,0.10575 0.1875,0.21809 0.1875,0.375 0,0.1228 -0.0273,0.29534 -0.0937,0.5 -0.25505,0.0819 -0.74227,0.16076 -1.5,0.21875 -0.89819,0.0648 -1.52386,0.25209 -1.875,0.5625 -0.34745,0.31041 -0.53125,0.73151 -0.53125,1.25 0,0.46391 0.15087,0.82823 0.46875,1.125 0.31788,0.29336 0.73084,0.4375 1.21875,0.4375 0.30679,0 0.60315,-0.0613 0.90625,-0.1875 0.30309,-0.12962 0.57963,-0.32372 0.8125,-0.5625 0.0148,0.21149 0.0622,0.42716 0.125,0.625 l 1.53125,0 c -0.0887,-0.28312 -0.12501,-0.54929 -0.125,-0.78125 -10e-6,-0.25924 0.0635,-0.69564 0.21875,-1.34375 0.1885,-0.78455 0.31417,-1.28455 0.34375,-1.46875 0.0333,-0.1842 0.0311,-0.33626 0.0313,-0.5 -1e-5,-0.40592 -0.16902,-0.75153 -0.53125,-1.03125 -0.36224,-0.28312 -0.92977,-0.43749 -1.6875,-0.4375 z m 11.90625,0 c -0.95363,1e-5 -1.67204,0.22304 -2.15625,0.65625 -0.34745,0.31042 -0.53125,0.66395 -0.53125,1.09375 0,0.4298 0.20396,0.79644 0.5625,1.0625 0.22917,0.17056 0.82022,0.39415 1.78125,0.6875 0.35853,0.10916 0.57493,0.20621 0.65625,0.28125 0.0776,0.0785 0.0937,0.15108 0.0937,0.25 0,0.14668 -0.0672,0.27267 -0.21875,0.375 -0.21808,0.15009 -0.51277,0.25 -0.875,0.25 -0.35115,0 -0.60921,-0.0647 -0.8125,-0.1875 -0.2033,-0.12621 -0.39449,-0.35607 -0.53125,-0.65625 l -1.53125,0.21875 c 0.16633,0.5219 0.47547,0.92881 0.9375,1.21875 0.46573,0.28653 1.11861,0.4375 1.96875,0.4375 0.85383,0 1.53057,-0.18387 2,-0.5625 0.46942,-0.37863 0.68749,-0.82867 0.6875,-1.34375 -1e-5,-0.3991 -0.16163,-0.74812 -0.53125,-1.03125 -0.26244,-0.20125 -0.78629,-0.38567 -1.5625,-0.59375 -0.50269,-0.13644 -0.81385,-0.25792 -0.90625,-0.3125 -0.14785,-0.0887 -0.21875,-0.17605 -0.21875,-0.3125 0,-0.13303 0.0746,-0.27266 0.21875,-0.375 0.14785,-0.10233 0.38608,-0.15625 0.71875,-0.15625 0.33266,0 0.63844,0.0857 0.875,0.21875 0.17372,0.0989 0.29737,0.23966 0.375,0.4375 l 1.46875,-0.21875 c -0.1035,-0.43662 -0.3619,-0.80666 -0.75,-1.0625 -0.38811,-0.25583 -0.96102,-0.37499 -1.71875,-0.375 z m 15.78125,0 c -0.95363,1e-5 -1.67204,0.22304 -2.15625,0.65625 -0.34745,0.31042 -0.53125,0.66395 -0.53125,1.09375 0,0.4298 0.17271,0.79644 0.53125,1.0625 0.22917,0.17056 0.82022,0.39415 1.78125,0.6875 0.35853,0.10916 0.57493,0.20621 0.65625,0.28125 0.0776,0.0785 0.125,0.15108 0.125,0.25 0,0.14668 -0.0672,0.27267 -0.21875,0.375 -0.21808,0.15009 -0.51277,0.25 -0.875,0.25 -0.35115,0 -0.64046,-0.0647 -0.84375,-0.1875 -0.2033,-0.12621 -0.36324,-0.35607 -0.5,-0.65625 l -1.53125,0.21875 c 0.16633,0.5219 0.47547,0.92881 0.9375,1.21875 0.46573,0.28653 1.11861,0.4375 1.96875,0.4375 0.85383,0 1.53057,-0.18387 2,-0.5625 0.46942,-0.37863 0.68749,-0.82867 0.6875,-1.34375 -1e-5,-0.3991 -0.19288,-0.74812 -0.5625,-1.03125 -0.26244,-0.20125 -0.78629,-0.38567 -1.5625,-0.59375 -0.50269,-0.13644 -0.7826,-0.25792 -0.875,-0.3125 -0.14785,-0.0887 -0.21875,-0.17605 -0.21875,-0.3125 0,-0.13303 0.0746,-0.27266 0.21875,-0.375 0.14785,-0.10233 0.38608,-0.15625 0.71875,-0.15625 0.33266,0 0.60719,0.0857 0.84375,0.21875 0.17372,0.0989 0.29737,0.23966 0.375,0.4375 l 1.46875,-0.21875 c -0.1035,-0.43662 -0.33065,-0.80666 -0.71875,-1.0625 -0.38811,-0.25583 -0.96102,-0.37499 -1.71875,-0.375 z m 10.21875,0 c -1.13105,1e-5 -1.98387,0.40295 -2.59375,1.1875 -0.44725,0.57989 -0.6875,1.22513 -0.6875,1.96875 0,0.76068 0.2547,1.37984 0.75,1.84375 0.4953,0.4605 1.1465,0.6875 1.9375,0.6875 0.57661,0 1.10046,-0.11234 1.5625,-0.375 0.46572,-0.26607 0.81653,-0.69003 1.09375,-1.21875 L 201.75,133.3125 c -0.2957,0.50485 -0.72144,0.78125 -1.25,0.78125 -0.32158,0 -0.58703,-0.12203 -0.8125,-0.34375 -0.22178,-0.22172 -0.34375,-0.51342 -0.34375,-0.875 0,-0.0307 0.0275,-0.067 0.0313,-0.125 l 3.96875,0 c 0.0739,-0.28312 0.12499,-0.61399 0.125,-0.96875 -10e-6,-0.74021 -0.23119,-1.30941 -0.65625,-1.71875 -0.42507,-0.41274 -0.99799,-0.62499 -1.71875,-0.625 z m 7.53125,0 c -0.36224,1e-5 -0.70229,0.0579 -1.03125,0.1875 -0.32527,0.12622 -0.65424,0.35608 -1.03125,0.65625 l 0.125,-0.71875 -1.5,0 -1.21875,5.4375 1.59375,0 0.5,-2.21875 c 0.14785,-0.65152 0.28797,-1.10101 0.40625,-1.3125 0.16263,-0.29676 0.37164,-0.53796 0.65625,-0.71875 0.28461,-0.18078 0.54838,-0.25 0.78125,-0.25 0.21438,0 0.38172,0.0471 0.5,0.15625 0.12197,0.10575 0.18749,0.24989 0.1875,0.4375 -1e-5,0.0887 -0.0528,0.352 -0.15625,0.8125 L 207.71875,135 l 1.59375,0 0.71875,-3.0625 c 0.12197,-0.53213 0.15624,-0.90272 0.15625,-1.09375 -1e-5,-0.42297 -0.12534,-0.77541 -0.40625,-1.03125 -0.27722,-0.25583 -0.67205,-0.37499 -1.15625,-0.375 z m 10.09375,0 c -0.36224,1e-5 -0.70229,0.0579 -1.03125,0.1875 -0.32527,0.12622 -0.68549,0.35608 -1.0625,0.65625 l 0.15625,-0.71875 -1.5,0 -1.21875,5.4375 1.59375,0 0.5,-2.21875 c 0.14785,-0.65152 0.28797,-1.10101 0.40625,-1.3125 0.16263,-0.29676 0.37164,-0.53796 0.65625,-0.71875 0.28461,-0.18078 0.54838,-0.25 0.78125,-0.25 0.21438,0 0.38172,0.0471 0.5,0.15625 0.12197,0.10575 0.18749,0.24989 0.1875,0.4375 -1e-5,0.0887 -0.0528,0.352 -0.15625,0.8125 L 217.8125,135 l 1.59375,0 0.6875,-3.0625 c 0.12197,-0.53213 0.18749,-0.90272 0.1875,-1.09375 -1e-5,-0.42297 -0.12534,-0.77541 -0.40625,-1.03125 -0.27722,-0.25583 -0.67205,-0.37499 -1.15625,-0.375 z m 5.3125,0 c -0.47312,1e-5 -0.92036,0.13337 -1.375,0.40625 -0.45464,0.27289 -0.81116,0.68662 -1.0625,1.21875 -0.25135,0.53214 -0.375,1.11212 -0.375,1.75 0,0.72316 0.19287,1.28103 0.5625,1.65625 0.36962,0.37522 0.82963,0.5625 1.40625,0.5625 0.5877,0 1.16801,-0.23327 1.71875,-0.65625 l -0.0625,0.28125 c -0.0924,0.44686 -0.15961,0.71072 -0.21875,0.84375 -0.0961,0.21149 -0.22346,0.37324 -0.375,0.46875 -0.2033,0.1228 -0.47614,0.1875 -0.8125,0.1875 -0.21439,0 -0.40558,-0.0359 -0.53125,-0.0937 -0.12198,-0.0546 -0.19456,-0.10563 -0.25,-0.1875 -0.0555,-0.0785 -0.0937,-0.21809 -0.0937,-0.375 l -1.65625,-0.21875 c -0.0111,0.0785 -0.0313,0.15394 -0.0313,0.21875 0,0.61059 0.19993,1.04984 0.625,1.3125 0.42507,0.26265 1.07459,0.40625 1.90625,0.40625 0.35853,0 0.69321,-0.0393 1,-0.0937 0.30678,-0.0546 0.55577,-0.15504 0.78125,-0.28125 0.22547,-0.1228 0.41464,-0.2533 0.5625,-0.4375 0.14784,-0.1842 0.29166,-0.43959 0.40625,-0.75 0.11458,-0.31041 0.23991,-0.83593 0.40625,-1.5625 l 1.03125,-4.53125 -1.5,0 -0.21875,0.96875 c -0.18112,-0.34452 -0.42474,-0.62147 -0.75,-0.8125 -0.32527,-0.19102 -0.70195,-0.28124 -1.09375,-0.28125 z m -73.09375,0.125 0.78125,5.4375 1.53125,0 1.90625,-3.46875 0.28125,3.46875 1.59375,0 3.03125,-5.4375 -1.65625,0 -1.90625,3.65625 -0.1875,-3.65625 -1.5625,0 -1.875,3.65625 -0.46875,-3.65625 -1.46875,0 z m 15.6875,0 1.03125,5.4375 c -0.31418,0.68222 -0.6996,1.03125 -1.1875,1.03125 -0.18112,0 -0.3703,-0.0427 -0.5625,-0.0937 L 165.75,137.0313 c 0.42137,0.10915 0.81989,0.1875 1.15625,0.1875 0.34005,0 0.60349,-0.0749 0.84375,-0.1875 0.24395,-0.11257 0.45497,-0.27091 0.625,-0.46875 0.17372,-0.19785 0.41935,-0.53664 0.71875,-1.03125 l 3.625,-5.96875 -1.6875,0 -1.40625,2.40625 c -0.36224,0.61741 -0.63676,1.22524 -0.84375,1.78125 -0.0111,-0.27971 -0.0564,-0.77288 -0.15625,-1.46875 l -0.40625,-2.71875 -1.59375,0 z m 18.96875,0 -1.25,5.4375 1.59375,0 1.25,-5.4375 -1.59375,0 z m 26.53125,0 -1.25,5.4375 1.59375,0 1.25,-5.4375 -1.59375,0 z M 200.9375,130.5 c 0.32896,0 0.58534,0.08 0.78125,0.28125 0.1959,0.20126 0.3125,0.50374 0.3125,0.90625 0,0.0341 -0.0275,0.0914 -0.0313,0.15625 l -2.46875,0 c 0.0924,-0.44685 0.27251,-0.77145 0.53125,-1 0.26243,-0.22854 0.54603,-0.34375 0.875,-0.34375 z m 23.375,0 c 0.2957,0 0.55577,0.10839 0.78125,0.34375 0.22547,0.23537 0.34375,0.55205 0.34375,0.9375 0,0.33429 -0.0783,0.67309 -0.21875,1.03125 -0.13677,0.35817 -0.33132,0.61807 -0.59375,0.8125 -0.25874,0.19443 -0.53528,0.3125 -0.8125,0.3125 -0.3031,0 -0.54671,-0.12885 -0.75,-0.34375 -0.1996,-0.21831 -0.3125,-0.52475 -0.3125,-0.9375 0,-0.26606 0.0692,-0.57196 0.1875,-0.90625 0.15524,-0.43321 0.35719,-0.72942 0.59375,-0.9375 0.24025,-0.20807 0.49664,-0.3125 0.78125,-0.3125 z m -79.75,1.96875 -0.0313,0.1875 c -0.0813,0.35817 -0.20531,0.64195 -0.3125,0.8125 -0.1035,0.16715 -0.25437,0.2971 -0.46875,0.40625 -0.21069,0.10575 -0.416,0.15625 -0.65625,0.15625 -0.21808,0 -0.39819,-0.0715 -0.53125,-0.1875 -0.13307,-0.11939 -0.21875,-0.26694 -0.21875,-0.4375 0,-0.20808 0.10752,-0.34595 0.28125,-0.46875 0.24395,-0.17055 0.76411,-0.31756 1.5625,-0.40625 0.15893,-0.0205 0.27889,-0.0386 0.375,-0.0625 z m 19,0 -0.0313,0.1875 c -0.0813,0.35817 -0.17406,0.64195 -0.28125,0.8125 -0.1035,0.16715 -0.25437,0.2971 -0.46875,0.40625 -0.21069,0.10575 -0.44725,0.15625 -0.6875,0.15625 -0.21808,0 -0.39819,-0.0715 -0.53125,-0.1875 -0.13307,-0.11939 -0.1875,-0.26694 -0.1875,-0.4375 0,-0.20808 0.0763,-0.34595 0.25,-0.46875 0.24395,-0.17055 0.76411,-0.31756 1.5625,-0.40625 0.15893,-0.0205 0.27889,-0.0386 0.375,-0.0625 z m -148.6875,6.4375 c -7.10456,0 -12.875,5.77044 -12.875,12.875 0,7.10456 5.77044,12.90625 12.875,12.90625 7.10456,0 12.875,-5.80169 12.875,-12.90625 0,-7.10456 -5.77044,-12.875 -12.875,-12.875 z m 57.90625,0.15625 0,7.6875 c -0.55693,-0.64817 -1.18227,-1.11339 -1.90625,-1.4375 -0.71474,-0.32408 -1.55573,-0.46873 -2.4375,-0.46875 -1.81,2e-5 -3.3212,0.67586 -4.5,2.09375 -1.16954,1.41794 -1.71875,3.48247 -1.71875,6.15625 0,2.39021 0.5356,4.42263 1.59375,6.09375 1.06745,1.67112 2.57954,2.53125 4.59375,2.53125 1.00245,0 1.93317,-0.25286 2.75,-0.71875 0.61261,-0.35448 1.25744,-1.0497 2,-2.0625 l 0,2.40625 5.34375,0 0,-22.28125 -5.71875,0 z m 45.875,0 -5.65625,3.21875 0,3 -2.09375,0 0,4.59375 2.09375,0 0,5.75 c 0,1.83123 0.15406,3.17698 0.46875,4 0.32395,0.81274 0.83359,1.41127 1.5,1.8125 0.66639,0.40122 1.6869,0.625 3.09375,0.625 1.21247,0 2.50865,-0.19175 3.90625,-0.53125 l -0.40625,-4.3125 c -0.74971,0.26749 -1.33352,0.375 -1.75,0.375 -0.46279,0 -0.78364,-0.15021 -0.96875,-0.5 -0.12033,-0.22633 -0.18751,-0.70668 -0.1875,-1.40625 l 0,-5.8125 3.125,0 0,-4.59375 -3.125,0 0,-6.21875 z M 80.25,139.25 l 0,4.21875 4.9375,0 0,-4.21875 -4.9375,0 z m 75.09375,0 0,22.4375 5.4375,0 0,-7.8125 c -2e-5,-1.48013 0.2152,-2.5221 0.625,-3.09375 0.40976,-0.57163 0.93453,-0.84374 1.59375,-0.84375 0.59685,1e-5 1.07663,0.22753 1.40625,0.65625 0.3296,0.41853 0.46874,1.13547 0.46875,2.15625 l 0,8.9375 5.46875,0 0,-10.34375 c -2e-5,-2.13344 -0.42607,-3.71899 -1.28125,-4.75 -0.8463,-1.03098 -2.02124,-1.53123 -3.5,-1.53125 -0.99774,2e-5 -1.83203,0.18482 -2.5625,0.5625 -0.73049,0.37771 -1.47938,0.99714 -2.21875,1.875 l 0,-8.25 -5.4375,0 z m 33.96875,0 0,4.21875 5.625,0 0,-4.21875 -5.625,0 z M 14.875,139.875 c 6.57956,0 11.90625,5.32668 11.90625,11.90625 0,6.57957 -5.32669,11.9375 -11.90625,11.9375 -6.57957,0 -11.90625,-5.35793 -11.90625,-11.9375 0,-6.57957 5.32668,-11.90625 11.90625,-11.90625 z m 0.09375,1.25 -0.46875,1.34375 -6.09375,17.25 -0.21875,0.65625 0.6875,0 12.1875,0 0.71875,0 -0.25,-0.65625 -6.09375,-17.25 -0.46875,-1.34375 z m 0,3 2.15625,6.0625 -3.25,9.1875 -4.3125,0 5.40625,-15.25 z m 21.875,0.9375 c -0.98538,2e-5 -1.90294,0.0765 -2.75,0.25 -0.84707,0.17355 -1.48472,0.43357 -1.96875,0.75 -0.6742,0.43895 -1.23072,0.96025 -1.59375,1.5625 -0.35439,0.59207 -0.5911,1.39631 -0.78125,2.4375 l 5.03125,0.625 c 0.20744,-0.70433 0.4754,-1.18229 0.8125,-1.4375 0.43217,-0.32664 1.10438,-0.49999 1.96875,-0.5 0.67419,1e-5 1.13829,0.16253 1.40625,0.46875 0.26794,0.30625 0.40624,0.82817 0.40625,1.59375 -0.65692,0.30625 -1.31849,0.55606 -1.90625,0.75 -0.58777,0.18375 -1.86438,0.53045 -3.84375,1 -1.65092,0.38791 -2.76132,0.98504 -3.375,1.78125 -0.6137,0.79622 -0.90625,1.7961 -0.90625,3.03125 0,1.31682 0.43418,2.41421 1.28125,3.3125 0.85572,0.89829 2.07646,1.375 3.71875,1.375 1.23602,0 2.31649,-0.23835 3.25,-0.6875 0.68283,-0.33686 1.371,-0.90149 2.0625,-1.6875 0.0605,0.46956 0.12695,0.80668 0.1875,1.03125 0.0605,0.21437 0.17618,0.55023 0.375,0.96875 l 4.96875,0 c -0.27661,-0.67372 -0.47608,-1.22752 -0.5625,-1.65625 -0.0779,-0.43894 -0.09395,-1.04691 -0.09375,-1.8125 l 0,-7.1875 c -2e-5,-0.76558 -0.14695,-1.56919 -0.40625,-2.40625 -0.25932,-0.84724 -0.5818,-1.47813 -1.03125,-1.9375 -0.63964,-0.6635 -1.47808,-1.10833 -2.4375,-1.3125 -0.95945,-0.21435 -2.23073,-0.31248 -3.8125,-0.3125 z m 57.71875,0 c -2.41191,2e-5 -4.36351,0.79342 -5.78125,2.40625 -1.41775,1.60265 -2.09375,3.64449 -2.09375,6.125 0,2.66426 0.82291,4.82528 2.5,6.46875 1.36588,1.32703 3.16192,2 5.375,2 2.48104,0 4.41203,-0.81382 5.8125,-2.40625 1.40908,-1.60263 2.12498,-3.65531 2.125,-6.15625 -2e-5,-2.22531 -0.5863,-4.10401 -1.71875,-5.625 -1.40911,-1.88844 -3.46107,-2.81248 -6.21875,-2.8125 z m 52.71875,0 c -1.55315,2e-5 -2.81883,0.24983 -3.8125,0.75 -0.62627,0.31646 -1.21963,0.78421 -1.8125,1.4375 -0.59287,0.64311 -1.06389,1.37088 -1.40625,2.1875 -0.46762,1.11267 -0.6875,2.51342 -0.6875,4.1875 0,1.60264 0.14714,2.90526 0.53125,3.875 0.38411,0.96975 0.91738,1.80649 1.59375,2.53125 0.67637,0.71455 1.50227,1.23585 2.4375,1.5625 0.94357,0.31644 2.12005,0.46875 3.53125,0.46875 1.46128,0 2.68141,-0.24981 3.625,-0.75 0.95191,-0.50019 1.73417,-1.19545 2.34375,-2.09375 0.60955,-0.9085 1.04527,-1.98359 1.3125,-3.21875 l -4.84375,-0.65625 c -0.22547,0.86768 -0.60325,1.48773 -1.0625,1.90625 -0.45093,0.41853 -0.98824,0.625 -1.65625,0.625 -0.80163,0 -1.48229,-0.33711 -2,-1.03125 -0.51772,-0.69413 -0.78126,-1.69401 -0.78125,-3.03125 -1e-5,-1.50055 0.26353,-2.64002 0.78125,-3.375 0.52606,-0.74516 1.25038,-1.12499 2.09375,-1.125 0.66801,1e-5 1.17003,0.20524 1.5625,0.5625 0.4008,0.34708 0.66219,0.86837 0.8125,1.5625 l 4.8125,-0.78125 c -0.45928,-1.8272 -1.26228,-3.23815 -2.40625,-4.1875 -1.13565,-0.94932 -2.79769,-1.40623 -4.96875,-1.40625 z m 35.8125,0 c -1.1666,2e-5 -2.15681,0.21795 -2.96875,0.6875 -0.81195,0.45937 -1.58172,1.23048 -2.375,2.3125 l 0,-2.65625 -5.34375,0 0,16.28125 5.6875,0 0,-7.8125 c -1e-5,-1.48013 0.22694,-2.5221 0.65625,-3.09375 0.42929,-0.57163 1.02812,-0.84374 1.71875,-0.84375 0.62529,1e-5 1.09218,0.22753 1.4375,0.65625 0.34531,0.41853 0.49999,1.13547 0.5,2.15625 l 0,8.9375 5.71875,0 0,-10.34375 c -3e-5,-2.14364 -0.44782,-3.7292 -1.34375,-4.75 -0.88663,-1.03098 -2.11028,-1.53123 -3.6875,-1.53125 z m 21.03125,0 c -1.57118,2e-5 -2.86979,0.24983 -3.875,0.75 -0.63355,0.31646 -1.24401,0.78421 -1.84375,1.4375 -0.59976,0.64311 -1.05992,1.37088 -1.40625,2.1875 -0.47305,1.11267 -0.71875,2.51342 -0.71875,4.1875 0,1.60264 0.20518,2.90526 0.59375,3.875 0.38857,0.96975 0.90952,1.80649 1.59375,2.53125 0.68422,0.71455 1.49142,1.23585 2.4375,1.5625 0.95453,0.31644 2.16617,0.46875 3.59375,0.46875 1.47825,0 2.67045,-0.24981 3.625,-0.75 0.96297,-0.50019 1.75833,-1.19545 2.375,-2.09375 0.61663,-0.9085 1.07342,-1.98359 1.34375,-3.21875 l -4.90625,-0.65625 c -0.22809,0.86768 -0.59791,1.48773 -1.0625,1.90625 -0.45617,0.41853 -0.98048,0.625 -1.65625,0.625 -0.81094,0 -1.47628,-0.33711 -2,-1.03125 -0.52373,-0.69413 -0.78126,-1.69401 -0.78125,-3.03125 -1e-5,-1.50055 0.25752,-2.64002 0.78125,-3.375 0.53217,-0.74516 1.20933,-1.12499 2.0625,-1.125 0.67577,1e-5 1.19672,0.20524 1.59375,0.5625 0.40545,0.34708 0.69169,0.86837 0.84375,1.5625 l 4.84375,-0.78125 c -0.46461,-1.8272 -1.249,-3.23815 -2.40625,-4.1875 -1.14883,-0.94932 -2.83498,-1.40623 -5.03125,-1.40625 z m 15.5,0 c -0.94098,2e-5 -1.81611,0.0765 -2.625,0.25 -0.80891,0.17355 -1.41278,0.43357 -1.875,0.75 -0.64382,0.43895 -1.18458,0.96025 -1.53125,1.5625 -0.33842,0.59207 -0.56842,1.39631 -0.75,2.4375 l 4.84375,0.625 c 0.1981,-0.70433 0.42809,-1.18229 0.75,-1.4375 0.4127,-0.32664 1.01832,-0.49999 1.84375,-0.5 0.64381,1e-5 1.11911,0.16253 1.375,0.46875 0.25587,0.30625 0.37499,0.82817 0.375,1.59375 -0.62732,0.30625 -1.25123,0.55606 -1.8125,0.75 -0.5613,0.18375 -1.76606,0.53045 -3.65625,1 -1.57653,0.38791 -2.66396,0.98504 -3.25,1.78125 -0.58604,0.79622 -0.84375,1.7961 -0.84375,3.03125 0,1.31682 0.3786,2.41421 1.1875,3.3125 0.81716,0.89829 1.99421,1.375 3.5625,1.375 1.18033,0 2.23355,-0.23835 3.125,-0.6875 0.65207,-0.33686 1.30841,-0.90149 1.96875,-1.6875 0.0578,0.46956 0.0984,0.80668 0.15625,1.03125 0.0578,0.21437 0.18514,0.55023 0.375,0.96875 l 4.75,0 c -0.26415,-0.67372 -0.41747,-1.22752 -0.5,-1.65625 -0.0743,-0.43894 -0.12502,-1.04691 -0.125,-1.8125 l 0,-7.1875 c -2e-5,-0.76558 -0.15864,-1.56919 -0.40625,-2.40625 -0.24764,-0.84724 -0.5708,-1.47813 -1,-1.9375 -0.61082,-0.6635 -1.36506,-1.10833 -2.28125,-1.3125 -0.91622,-0.21435 -2.14575,-0.31248 -3.65625,-0.3125 z m -89.40625,0.1875 c -2.42816,1e-5 -4.33618,0.75702 -5.71875,2.3125 -1.37394,1.55552 -2.03125,3.60995 -2.03125,6.125 0,1.76762 0.31735,3.28067 1,4.59375 0.69129,1.30298 1.57942,2.26896 2.625,2.875 1.04557,0.59594 2.45797,0.90625 4.28125,0.90625 2.09978,0 3.72039,-0.36556 4.84375,-1.0625 1.12333,-0.70704 2.04875,-1.85264 2.84375,-3.46875 l -5.1875,-0.5625 c -0.32838,0.48483 -0.6211,0.80809 -0.90625,1 -0.46663,0.30302 -0.95029,0.46875 -1.46875,0.46875 -0.82091,0 -1.49018,-0.3343 -2,-1.03125 -0.36294,-0.48483 -0.59245,-1.26013 -0.6875,-2.25 l 10.5625,0 0,-0.65625 c -2e-5,-2.12113 -0.27878,-3.86431 -0.875,-5.1875 -0.59625,-1.32318 -1.48439,-2.33429 -2.625,-3.03125 -1.14064,-0.69693 -2.68609,-1.03124 -4.65625,-1.03125 z m -84.3125,0.15625 0,10.375 c 0,2.13345 0.39464,3.71901 1.28125,4.75 0.89594,1.02079 2.18209,1.53125 3.75,1.53125 1.17591,0 2.16613,-0.22815 2.96875,-0.6875 0.81194,-0.45935 1.5817,-1.23046 2.375,-2.3125 l 0,2.625 5.3125,0 0,-16.28125 -5.6875,0 0,7.84375 c -1e-5,1.48015 -0.24888,2.49086 -0.6875,3.0625 -0.42932,0.57165 -0.97496,0.875 -1.65625,0.875 -0.62531,0 -1.09219,-0.22751 -1.4375,-0.65625 -0.34531,-0.42873 -0.50001,-1.13545 -0.5,-2.15625 l 0,-8.96875 -5.71875,0 z m 34.34375,0 0,16.28125 4.9375,0 0,-16.28125 -4.9375,0 z m 109.0625,0 0,16.28125 5.625,0 0,-16.28125 -5.625,0 z m -58.875,3.46875 c 0.72585,1e-5 1.30929,0.26613 1.75,0.78125 0.44933,0.51514 0.7088,1.37064 0.8125,2.5625 l -5.1875,0 c 0.0864,-0.95955 0.30527,-1.6714 0.625,-2.15625 0.50118,-0.77773 1.16181,-1.18749 2,-1.1875 z m -35.8125,0.46875 c 0.72615,1e-5 1.35099,0.33713 1.84375,1.03125 0.49274,0.68394 0.74999,1.74757 0.75,3.15625 -1e-5,1.51077 -0.25726,2.59733 -0.75,3.28125 -0.48411,0.68393 -1.11427,1.03125 -1.875,1.03125 -0.75211,0 -1.37361,-0.33711 -1.875,-1.03125 -0.49276,-0.69413 -0.75001,-1.76922 -0.75,-3.21875 -1e-5,-1.42909 0.24859,-2.49335 0.75,-3.1875 0.50139,-0.70433 1.13685,-1.06249 1.90625,-1.0625 z m -24.40625,0.125 c 0.75184,1e-5 1.38304,0.27833 1.875,0.90625 0.49194,0.61782 0.71874,1.57776 0.71875,2.84375 -1e-5,1.39767 -0.23609,2.41345 -0.71875,3.03125 -0.48268,0.61781 -1.08852,0.9375 -1.8125,0.9375 -0.6776,0 -1.25465,-0.32982 -1.71875,-0.9375 -0.45484,-0.6178 -0.68751,-1.55835 -0.6875,-2.875 -1e-5,-1.40779 0.24194,-2.43369 0.6875,-3.03125 0.44552,-0.59753 0.99721,-0.87499 1.65625,-0.875 z m 33.71875,1.625 0,4.8125 8.21875,0 0,-4.8125 -8.21875,0 z m -86.28125,0.59375 2.71875,7.6875 -5.46875,0 2.75,-7.6875 z m 21.71875,2.28125 0,1 c -1e-5,0.77581 -0.12767,1.41628 -0.34375,1.90625 -0.20745,0.47978 -0.5838,0.88189 -1.09375,1.21875 -0.50134,0.33686 -1.006,0.5 -1.59375,0.5 -0.56185,0 -1.01863,-0.16251 -1.3125,-0.46875 -0.28525,-0.31644 -0.43751,-0.72877 -0.4375,-1.21875 -1e-5,-0.42873 0.17487,-0.78813 0.46875,-1.125 0.28523,-0.32665 0.95944,-0.66313 2.03125,-1 0.78655,-0.23477 1.55518,-0.50626 2.28125,-0.8125 z m 182.65625,0 0,1 c -1e-5,0.77581 -0.10616,1.41628 -0.3125,1.90625 -0.1981,0.47978 -0.54427,0.88189 -1.03125,1.21875 -0.47875,0.33686 -0.96997,0.5 -1.53125,0.5 -0.53652,0 -0.96937,-0.16251 -1.25,-0.46875 -0.2724,-0.31644 -0.40626,-0.72877 -0.40625,-1.21875 -1e-5,-0.42873 0.15686,-0.78813 0.4375,-1.125 0.27238,-0.32665 0.88273,-0.66313 1.90625,-1 0.75111,-0.23477 1.49414,-0.50626 2.1875,-0.8125 z m 6.34375,4.84375 0,2.84375 2.84375,0 0,-2.84375 -2.84375,0 z"
       transform="translate(115.53125,361.75)"
       id="path3001"
       inkscape:connector-curvature="0" />
  </g>
</svg>
