<?xml version="1.0" encoding="UTF-8" standalone="no"?>
<!-- Created with Inkscape (http://www.inkscape.org/) -->
<svg
   xmlns:svg="http://www.w3.org/2000/svg"
   xmlns="http://www.w3.org/2000/svg"
   version="1.0"
   width="800"
   height="228.94501"
   viewBox="0 0 800 228.945"
   id="Layer_1"
   xml:space="preserve"><defs
   id="defs18" />
<g
   id="g3">
	<g
   id="g5">
		<g
   id="g7">
			<path
   d="M 148.486,89.642 C 159.252,86.94 173.102,69.25 173.102,48.101 C 173.102,26.934 156.177,2.328 113.866,2.328 C 71.555,2.328 0,2.328 0,2.328 L 0,190.427 L 106.94,190.427 C 161.556,190.427 178.486,166.199 178.486,134.271 C 178.486,102.343 148.486,89.642 148.486,89.642 z M 53.085,47.86 L 101.942,47.86 C 113.099,47.86 117.087,56.325 117.087,61.309 C 117.087,66.32 115.783,75.934 101.555,75.934 C 87.322,75.934 53.085,75.934 53.085,75.934 L 53.085,47.86 L 53.085,47.86 z M 98.476,148.877 C 83.091,148.877 51.929,148.877 51.929,148.877 L 51.929,111.181 L 98.152,111.181 C 108.539,111.181 120.413,115.418 120.413,129.259 C 120.412,143.109 113.866,148.877 98.476,148.877 z "
   style="fill:#491770"
   id="path9" />
			<path
   d="M 270.424,1.7 C 247.976,1.7 229.662,11.634 216.195,22.706 C 193.333,41.478 184.566,71.563 184.953,100.776 C 185.402,134.907 202.087,168.869 228.968,181.098 C 292.436,209.946 343.132,188.887 361.592,170.809 L 361.592,129.651 C 361.592,129.651 333.514,156.959 287.354,150.426 C 241.189,143.884 241.963,114.261 241.585,110.412 L 364.293,110.412 C 364.294,110.412 375.438,1.7 270.424,1.7 z M 242.738,75.026 C 242.342,69.641 250.807,47.331 276.584,47.331 C 302.352,47.331 307.35,75.026 307.35,75.026 L 242.738,75.026 z "
   style="fill:#491770"
   id="path11" />
			<path
   d="M 486.232,2.328 C 463.472,3.049 446.356,15.052 432.003,32.863 L 432.003,7.708 L 376.986,7.708 L 376.986,190.427 L 432.003,190.427 L 432.003,74.786 C 440.784,62.191 454.914,45.582 468.92,44.63 C 483.456,43.647 492.459,51.528 497.777,70.22 L 497.777,190.045 L 553.933,190.045 L 553.933,65.409 C 550.475,21.932 522.401,1.166 486.232,2.328 z "
   style="fill:#491770"
   id="path13" />
			<path
   d="M 712.575,185.932 C 744.574,172.389 766.101,143.163 767.823,97.403 C 769.843,43.646 721.997,0 665.458,0 C 608.933,0 562.038,43.61 563.093,97.403 C 564.343,160.68 608.933,194.801 665.458,194.801 C 717.564,250.027 792.648,221.66 792.648,221.66 L 800,162.977 C 760.675,192.394 723.759,188.665 712.575,185.932 z M 621.42,102.067 C 621.42,72.765 640.859,49.008 664.839,49.008 C 688.826,49.008 707.225,72.764 707.225,102.067 C 707.225,131.342 688.818,155.099 664.839,155.099 C 640.86,155.099 621.42,131.342 621.42,102.067 z "
   style="fill:#491770"
   id="path15" />
		</g>
	</g>
</g>
</svg>